<!DOCTYPE svg PUBLIC "-//W3C//DTD SVG 20010904//EN" "http://www.w3.org/TR/2001/REC-SVG-20010904/DTD/svg10.dtd">
<svg version="1.0" xmlns="http://www.w3.org/2000/svg" width="200px" height="200px" viewBox="0 0 2000 2000" preserveAspectRatio="xMidYMid meet">
<g id="layer101" fill="#96c93d" stroke="none">
 <path d="M674 1984 c-89 -16 -148 -40 -141 -56 109 -267 201 -485 207 -492 4 -4 25 -2 47 5 58 20 159 15 227 -11 49 -19 60 -20 71 -9 10 11 263 427 273 450 9 21 -169 96 -269 114 -102 18 -316 18 -415 -1z"/>
 <path d="M86 1528 c-8 -13 -22 -43 -32 -68 -10 -25 -21 -47 -24 -50 -8 -6 -18 -81 -27 -197 l-6 -83 265 0 c282 0 288 1 288 50 0 14 7 38 15 54 16 30 14 56 -4 56 -5 0 -107 59 -226 130 -119 72 -220 130 -225 130 -5 0 -16 -10 -24 -22z"/>
 <path d="M460 655 l-195 -196 25 -20 c53 -43 103 -79 110 -79 4 0 60 89 125 198 65 108 129 212 142 230 20 26 22 36 13 47 -7 8 -15 15 -19 15 -3 0 -94 -88 -201 -195z"/>
 </g>
<g id="layer102" fill="#424143" stroke="none">
 <path d="M1350 1851 c-6 -12 -6 -22 -1 -26 6 -3 15 3 21 14 6 12 6 22 1 26 -6 3 -15 -3 -21 -14z"/>
 <path d="M818 1366 c-123 -34 -213 -168 -193 -288 25 -151 178 -255 321 -219 l48 12 258 -258 c210 -210 258 -262 252 -278 -3 -11 -8 -45 -11 -76 -7 -71 22 -140 80 -196 52 -50 90 -63 184 -63 160 0 243 86 243 253 0 81 -24 141 -74 185 -73 64 -146 83 -236 62 l-52 -13 -258 258 -257 257 13 36 c51 144 -65 317 -226 336 -25 3 -66 0 -92 -8z"/>
 <path d="M1729 856 c-1 -3 -2 -9 -3 -13 -1 -5 -5 -13 -9 -20 -4 -6 -3 -14 3 -18 5 -3 11 -4 11 -1 1 3 2 9 3 14 1 4 5 12 9 19 4 6 3 14 -3 18 -5 3 -11 4 -11 1z"/>
 <path d="M226 512 c-3 -6 1 -15 8 -21 8 -7 17 -8 20 -3 3 6 -1 15 -8 21 -8 7 -17 8 -20 3z"/>
 </g>
<g id="layer103" fill="#6da643" stroke="none">
 <path d="M213 1708 c-56 -62 -107 -139 -97 -147 5 -5 111 -69 236 -144 l227 -135 35 42 35 43 -192 191 c-106 106 -195 192 -198 192 -4 0 -24 -19 -46 -42z"/>
 <path d="M1312 1557 l-193 -193 22 -20 c32 -28 68 -107 82 -177 l13 -62 274 0 275 0 -3 65 c-6 141 -56 297 -134 418 -45 69 -124 162 -138 162 -3 0 -92 -87 -198 -193z"/>
 <path d="M564 608 c-70 -117 -134 -221 -141 -230 -22 -24 -9 -36 81 -79 103 -48 220 -78 316 -81 l75 -3 0 274 0 274 -60 13 c-33 6 -78 19 -99 28 -21 9 -40 16 -42 16 -1 0 -60 -96 -130 -212z"/>
 </g>
<g id="layer104" fill="#4e5b31" stroke="none">
 <path d="M465 1909 c-80 -42 -209 -143 -194 -152 2 -1 90 -87 196 -191 l191 -189 36 22 c20 13 36 26 36 31 0 9 -174 434 -192 469 -18 33 -27 34 -73 10z"/>
 <path d="M1352 1843 c-11 -16 -74 -119 -142 -231 -109 -182 -135 -243 -100 -230 5 2 95 88 200 192 l190 189 -20 22 c-12 12 -41 36 -65 54 l-44 31 -19 -27z"/>
 <path d="M0 1058 c0 -196 78 -392 218 -545 l39 -42 196 196 196 196 -31 35 c-37 43 -55 84 -71 165 l-13 62 -267 3 -267 2 0 -72z"/>
 <path d="M1233 1078 c-6 -7 -13 -29 -17 -48 -6 -35 -4 -38 193 -234 175 -175 202 -198 216 -186 28 24 87 140 116 230 27 83 52 226 42 243 -2 4 -125 7 -272 7 -203 0 -271 -3 -278 -12z"/>
 <path d="M950 777 l-35 -12 0 -275 0 -275 55 3 c30 2 91 12 135 23 88 22 283 113 292 136 4 10 -61 82 -193 214 -109 109 -203 199 -209 198 -5 0 -26 -5 -45 -12z"/>
 </g>

</svg>